<svg xmlns="http://www.w3.org/2000/svg" viewBox="0 0 720 480" role="img" aria-labelledby="title desc">
  <title id="title">Inventory forecast</title>
  <desc id="desc">Abstract stock coverage bars with a forecast interval.</desc>
  <rect width="720" height="480" rx="36" fill="#f6f2ea"/>
  <rect x="30" y="30" width="660" height="420" rx="26" fill="#fffdf9" stroke="#e6ddcc"/>
  <rect x="58" y="58" width="196" height="18" rx="9" fill="#14221f"/>
  <rect x="58" y="90" width="286" height="10" rx="5" fill="#aa9e88" opacity=".65"/>
  <g transform="translate(58 142)">
    <rect width="252" height="248" rx="20" fill="#f4f7f4"/>
    <g transform="translate(24 28)">
      <rect width="204" height="34" rx="10" fill="#ffffff"/>
      <rect x="12" y="11" width="78" height="12" rx="6" fill="#63736d"/>
      <rect x="126" y="10" width="62" height="14" rx="7" fill="#d7a856"/>
      <rect y="54" width="204" height="34" rx="10" fill="#ffffff"/>
      <rect x="12" y="65" width="96" height="12" rx="6" fill="#63736d"/>
      <rect x="146" y="64" width="42" height="14" rx="7" fill="#cf6d63"/>
      <rect y="108" width="204" height="34" rx="10" fill="#ffffff"/>
      <rect x="12" y="119" width="62" height="12" rx="6" fill="#63736d"/>
      <rect x="116" y="118" width="72" height="14" rx="7" fill="#5ca180"/>
      <rect y="162" width="204" height="34" rx="10" fill="#ffffff"/>
      <rect x="12" y="173" width="86" height="12" rx="6" fill="#63736d"/>
      <rect x="136" y="172" width="52" height="14" rx="7" fill="#d7a856"/>
    </g>
  </g>
  <g transform="translate(336 142)">
    <rect width="326" height="248" rx="20" fill="#14221f"/>
    <path d="M28 188H296M28 136H296M28 84H296" stroke="#3f5a51" stroke-width="2"/>
    <path d="M36 172C78 162 101 150 130 142S188 126 218 98 265 67 292 52" fill="none" stroke="#e7b35b" stroke-width="7" stroke-linecap="round"/>
    <path d="M36 194C80 181 106 178 132 165S188 150 220 125 267 100 292 84" fill="none" stroke="#e7b35b" stroke-width="24" stroke-linecap="round" opacity=".22"/>
    <circle cx="218" cy="98" r="9" fill="#ffffff" stroke="#e7b35b" stroke-width="5"/>
    <rect x="28" y="214" width="104" height="10" rx="5" fill="#afc6bd"/>
    <rect x="220" y="214" width="76" height="10" rx="5" fill="#afc6bd"/>
  </g>
</svg>
